# xmcd
#
# Track frame offsets:
#	150
#	18257
#	33163
#	51938
#	76520
#	93409
#	112562
#	131829
#	146161
#	167626
#	185000
#	202077
#
# Disc length: 2939 seconds
#
# Revision: 0
# Processed by: cddbd v1.5.1PL0 Copyright (c) Steve Scherf et al.
# Submitted via: dBpowerAMP V4.0
#
DISCID=980b790c
DTITLE=Keyshia Cole - The Way It Is
DYEAR=2005
DGENRE=R&B
TTITLE0=01.(I Just Want It) To Be Over
TTITLE1=02.I Changed My Mind
TTITLE2=03.Thought You Had My Back
TTITLE3=04.I Should've Cheated
TTITLE4=05.Guess What?
TTITLE5=06.Love
TTITLE6=07.You've Changed
TTITLE7=08.We Could Be
TTITLE8=09.Situations
TTITLE9=10.Down And Dirty
TTITLE10=11.Superstar
TTITLE11=12.Never
EXTD=
EXTT0=
EXTT1=
EXTT2=
EXTT3=
EXTT4=
EXTT5=
EXTT6=
EXTT7=
EXTT8=
EXTT9=
EXTT10=
EXTT11=
PLAYORDER=
